ModelForces
version=1
nRows=4
nColumns=103
inDegrees=no

This file contains the forces exerted on a model during a simulation.

A force is a generalized force, meaning that it can be either a force (N) or a torque (Nm).

Units are S.I. units (second, meters, Newtons, ...)
Angles are in degrees.

endheader
time	glut_med1_r	glut_med2_r	glut_med3_r	glut_min1_r	glut_min2_r	glut_min3_r	semimem_r	semiten_r	bifemlh_r	bifemsh_r	sar_r	add_long_r	add_brev_r	add_mag1_r	add_mag2_r	add_mag3_r	tfl_r	pect_r	grac_r	glut_max1_r	glut_max2_r	glut_max3_r	iliacus_r	psoas_r	quad_fem_r	gem_r	peri_r	rect_fem_r	vas_med_r	vas_int_r	vas_lat_r	med_gas_r	lat_gas_r	soleus_r	tib_post_r	flex_dig_r	flex_hal_r	tib_ant_r	per_brev_r	per_long_r	per_tert_r	ext_dig_r	ext_hal_r	glut_med1_l	glut_med2_l	glut_med3_l	glut_min1_l	glut_min2_l	glut_min3_l	semimem_l	semiten_l	bifemlh_l	bifemsh_l	sar_l	add_long_l	add_brev_l	add_mag1_l	add_mag2_l	add_mag3_l	tfl_l	pect_l	grac_l	glut_max1_l	glut_max2_l	glut_max3_l	iliacus_l	psoas_l	quad_fem_l	gem_l	peri_l	rect_fem_l	vas_med_l	vas_int_l	vas_lat_l	med_gas_l	lat_gas_l	soleus_l	tib_post_l	flex_dig_l	flex_hal_l	tib_ant_l	per_brev_l	per_long_l	per_tert_l	ext_dig_l	ext_hal_l	ercspn_r	ercspn_l	intobl_r	intobl_l	extobl_r	extobl_l	aACL_R	pACL_R	aPCL_R	pPCL_R	aMCL_R	aLCL_R	aPCL_L	pPCL_L	aMCL_L	aLCL_L
      0.00694054	     54.98723932	     36.65547855	     36.92387094	     18.91995323	     20.58063202	     22.77657565	     13.93142216	     27.09511656	     15.96523799	     49.59727977	     42.27115932	     18.32856137	     13.00304800	      6.43914803	      7.64166849	     17.70443050	      6.19569858	      8.27342925	     28.42667109	     20.52886658	     28.84475692	     15.63492099	     60.30166733	     52.19571581	      6.34879187	      6.10527172	     23.11306598	      0.00000000	      0.00000000	      0.00000000	      0.00000000	      0.00000000	      0.00000000	     19.20082310	     56.84187126	     13.06895223	     11.95782016	     66.71138653	     27.76786929	     47.82829115	     14.35342315	     39.29607651	     12.22286885	     13.73543010	     13.70412427	     17.17538403	      6.62137526	      5.57421323	      6.02684222	     22.41753216	     11.82137836	      3.93705519	     12.16563158	      6.00662729	     39.39089616	      0.00000000	     19.13264782	     16.64171618	     23.63366933	     11.11730189	     15.00986532	      4.66459200	     13.74148675	     24.79010694	     25.73569630	     66.38600691	     56.54777929	     26.04783247	     13.09484330	     16.89342490	     15.42800367	     30.99263225	     22.57135256	     34.86668725	      3.08334329	      1.27525127	     40.61053122	     39.94529887	     10.13669245	     10.10415331	     58.54902143	     34.62027171	     73.80190176	     14.49085071	     38.34165137	      9.40046967	    158.29457144	    112.51516734	     55.04390648	     34.52399246	     63.52855008	     56.38646942	    -64.19810677	   -102.55618721	      0.00000000	      0.00000000	      0.00000000	     32.32230060	      0.00000000	   -312.03299899	    -13.48986410	     13.93269607
      0.00792424	     53.53038631	     34.09492819	     32.99148755	     18.35541253	     19.77603886	     21.71299413	     12.08677337	     30.78786647	     15.88047836	     56.91755752	     46.33908413	     19.64101610	     14.39699854	      6.64420176	      7.38580631	     16.88331921	      5.68973776	      9.23011178	     32.11403795	     18.76248985	     25.84450789	     13.65497122	     64.41378309	     54.45352051	      6.26398746	      5.53839051	     22.36000917	      0.00000000	      0.00000000	      0.00000000	      0.00000000	      0.00000000	      0.00000000	     13.00139464	     53.49216510	     12.96666348	     11.72234115	     65.79396170	     28.32849370	     47.98771713	     14.39929183	     38.70214934	     12.01939877	     14.67839393	     14.72842842	     17.44220761	      8.36197049	      6.90307668	      6.45601035	     22.81421337	     12.56893279	      4.09645779	     15.58939287	      6.77493473	     37.91034104	      0.00000000	     18.38178914	     15.55228572	     22.68300706	     11.96634484	     14.37654205	      5.15493698	     13.27010479	     23.12189157	     23.30726405	     69.45564643	     58.37663973	     24.07104199	     12.59162046	     16.72971878	     16.40149975	     35.22432797	     25.25830863	     38.21138507	      2.52989425	      0.83362738	     33.90943159	     37.16535662	     10.13051745	     10.04796573	     60.71376294	     33.71031736	     72.33402815	     14.16943007	     37.64954238	      9.35181327	    166.94649406	    112.80868338	     56.58621803	     29.60663101	     63.28660680	     51.97393805	    -39.28829315	    -85.02036418	      0.00000000	      0.00000000	      0.00000000	    -72.91093705	      0.00000000	   -256.76355770	     -0.18739812	     25.89735728
      0.00892283	     51.79464250	     31.16837510	     28.61962549	     17.71967693	     18.87035638	     20.44383154	     10.51608363	     34.62725716	     15.99873273	     62.59073307	     49.76100143	     21.37058311	     15.98620164	      7.09196273	      7.28702232	     16.10442474	      5.23175703	     10.32127575	     35.17059331	     16.86399333	     22.81425722	     11.98333994	     69.11013506	     57.11887896	      6.43347516	      5.04657727	     21.37594864	      0.00000000	      0.00000000	      0.00000000	      0.00000000	      0.00000000	      0.00000000	      8.73364219	     50.41014989	     12.86692727	     11.51746336	     64.72550229	     28.98944307	     48.36543649	      9.26142893	     38.06683004	     11.77262110	     16.18458888	     16.08277542	     18.05585681	     10.38022233	      8.49100590	      7.12892726	     23.03869700	     13.09450309	      4.40826793	     18.33197270	      7.19249567	     36.28444134	     11.05862996	     16.83990994	     14.34567667	     21.60483787	     12.70299770	     13.69049707	      5.39338065	     12.95150455	     21.67326113	     20.77222655	     72.28373296	     60.21205075	     21.62711687	     12.02521006	     16.65090114	     17.24400966	     36.30983674	     25.83871620	     38.51033418	      2.21258781	      0.48782794	     27.98749416	     35.12891694	     10.26996961	     10.12474775	     62.33218799	     32.75880639	     70.55729727	     13.42360151	     36.90087004	      9.30259450	    168.39114260	    112.24801980	     57.77686786	     25.37764296	     63.09250425	     47.95347038	    -12.14540170	    -63.67826470	      0.00000000	      0.00000000	      0.00000000	   -163.14990338	      0.00000000	   -210.00464487	     -1.82858039	     20.38812634
      0.01014138	     49.77501548	     27.60340390	     23.49488512	     17.16269974	     17.85298187	     18.84240526	      9.13052607	     39.67159280	     16.69467658	     70.10692366	     53.94290921	     23.68110402	     17.58164855	      7.72800019	      7.27892995	     15.24109971	      4.77227915	     11.73883733	     38.67291253	     14.66556675	     19.62465797	     10.37824794	     74.62629377	     60.56427583	      6.64746060	      4.52843787	     20.01486243	      0.00000000	      0.00000000	      0.00000000	      0.00000000	      0.00000000	      0.00000000	      5.67056870	     47.25253720	     12.79190187	     11.34367534	     63.48322873	     29.57233378	     48.88068638	     12.64557807	     37.22413110	     11.44693103	     18.51960621	     17.93603446	     19.05414495	     13.08666527	     10.64302516	      8.16262793	     22.88106687	     13.35600352	      4.83317412	     20.48961995	      7.29251378	     34.26020628	     14.52951877	     14.55061613	     12.83292871	     20.25217801	     13.32361202	     12.85265952	      5.38123921	     12.72356977	     20.25140324	     17.77680575	     74.92843273	     62.25306227	     18.19350311	     11.28769224	     16.63690295	     17.80841134	     33.13892479	     23.60485014	     34.70187137	      1.89570057	      0.10608291	     21.77254491	     33.45127987	     10.60767614	     10.37099096	     62.94090430	     31.38609861	     68.10486662	     12.31996981	     35.96804928	      9.24123269	    166.87606135	    111.18177257	     58.45524029	     21.42947661	     62.82994122	     43.97074546	     19.10110302	    -36.01231698	      0.00000000	      0.00000000	      0.00000000	   -253.28728049	      0.00000000	   -163.81862372	    -11.88666717	      3.24311609
